<?xml version="1.0" encoding="UTF-8" standalone="no"?>
<!-- Uploaded to: SVG Repo, www.svgrepo.com, Generator: SVG Repo Mixer Tools -->

<svg
   width="800px"
   height="800px"
   viewBox="0 0 24 24"
   fill="none"
   version="1.1"
   id="svg2"
   sodipodi:docname="notification-bell-on-svgrepo-com.svg"
   inkscape:export-filename="notification-bell-on-svgrepo-com.svg"
   inkscape:export-xdpi="96"
   inkscape:export-ydpi="96"
   inkscape:version="1.3.2 (091e20e, 2023-11-25, custom)"
   xmlns:inkscape="http://www.inkscape.org/namespaces/inkscape"
   xmlns:sodipodi="http://sodipodi.sourceforge.net/DTD/sodipodi-0.dtd"
   xmlns="http://www.w3.org/2000/svg"
   xmlns:svg="http://www.w3.org/2000/svg">
  <sodipodi:namedview
     id="namedview2"
     pagecolor="#505050"
     bordercolor="#eeeeee"
     borderopacity="1"
     inkscape:showpageshadow="0"
     inkscape:pageopacity="0"
     inkscape:pagecheckerboard="0"
     inkscape:deskcolor="#505050"
     inkscape:zoom="1.01625"
     inkscape:cx="400"
     inkscape:cy="400"
     inkscape:window-width="1920"
     inkscape:window-height="1009"
     inkscape:window-x="-8"
     inkscape:window-y="-8"
     inkscape:window-maximized="1"
     inkscape:current-layer="svg2" />
  <path
     d="M 14.50002,19.00002 H 9.4999805 c 0,1.999998 1.0000215,3 2.5000195,3 1.499999,0 2.50002,-1.000002 2.50002,-3 z"
     style="stroke:#ffffff;stroke-linejoin:round;stroke-opacity:1;stroke-width:0.99999;stroke-dasharray:none"
     id="path5" />
  <path
     d="m 12,4.9999805 c -4.999995,0 -6,4.000002 -6,5.9999995 v 3.056426 c 0,0.621 -0.1445754,1.232823 -0.4222852,1.788223 l -0.8541211,1.708183 c -0.3324496,0.6649 0.1501655,1.447208 0.8935547,1.447208 h 3.8828321 5.0000395 3.881953 c 0.743299,0 1.226833,-0.782308 0.894433,-1.447208 L 18.422285,15.844629 C 18.144585,15.289229 18,14.677406 18,14.056406 V 10.99998 C 18,8.9999825 16.999995,4.9999805 12,4.9999805 Z"
     style="stroke:#ffffff;stroke-linejoin:round;fill:none;stroke-opacity:1"
     id="path4" />
  <defs
     id="defs2">
    <clipPath
       id="clip0_15_159">
      <rect
         width="24"
         height="24"
         fill="white"
         id="rect2" />
    </clipPath>
  </defs>
  <path
     style="fill:#ffffff;fill-rule:evenodd;stroke:#fefefe;stroke-width:0.805605;stroke-dashoffset:3.7;stroke-opacity:1;fill-opacity:1"
     id="path6"
     sodipodi:type="arc"
     sodipodi:cx="11.935499"
     sodipodi:cy="3.8579237"
     sodipodi:rx="0.18450184"
     sodipodi:ry="1.1420566"
     sodipodi:start="6.1441825"
     sodipodi:end="6.1440268"
     sodipodi:open="true"
     sodipodi:arc-type="arc"
     d="M 12.118221,3.6996854 A 0.18450184,1.1420566 0 0 1 11.96107,4.9889586 0.18450184,1.1420566 0 0 1 11.752779,4.0162501 0.18450184,1.1420566 0 0 1 11.909914,2.7269012 0.18450184,1.1420566 0 0 1 12.118217,3.6995093" />
</svg>
