<?xml version="1.0" encoding="UTF-8" standalone="no"?>
<!-- Uploaded to: SVG Repo, www.svgrepo.com, Generator: SVG Repo Mixer Tools -->

<svg
   height="800px"
   width="800px"
   version="1.1"
   id="Layer_1"
   viewBox="0 0 512 512"
   xml:space="preserve"
   sodipodi:docname="youtube-youtube-svgrepo-com.svg"
   inkscape:export-filename="youtube-youtube-svgrepo-com.svg"
   inkscape:export-xdpi="96"
   inkscape:export-ydpi="96"
   inkscape:version="1.3.2 (091e20e, 2023-11-25, custom)"
   xmlns:inkscape="http://www.inkscape.org/namespaces/inkscape"
   xmlns:sodipodi="http://sodipodi.sourceforge.net/DTD/sodipodi-0.dtd"
   xmlns="http://www.w3.org/2000/svg"
   xmlns:svg="http://www.w3.org/2000/svg"><defs
   id="defs1" /><sodipodi:namedview
   id="namedview1"
   pagecolor="#505050"
   bordercolor="#eeeeee"
   borderopacity="1"
   inkscape:showpageshadow="0"
   inkscape:pageopacity="0"
   inkscape:pagecheckerboard="0"
   inkscape:deskcolor="#505050"
   inkscape:zoom="1.01625"
   inkscape:cx="400"
   inkscape:cy="400"
   inkscape:window-width="1920"
   inkscape:window-height="1009"
   inkscape:window-x="-8"
   inkscape:window-y="-8"
   inkscape:window-maximized="1"
   inkscape:current-layer="Layer_1" />
<path
   style="fill:#ee0000;fill-opacity:1;stroke:#ff4f4f;stroke-opacity:1"
   d="M506.703,145.655c0,0-5.297-37.959-20.303-54.731c-19.421-22.069-41.49-22.069-51.2-22.952  C363.697,62.676,256,61.793,256,61.793l0,0c0,0-107.697,0.883-179.2,6.179c-9.71,0.883-31.779,1.766-51.2,22.952  C9.71,107.697,5.297,145.655,5.297,145.655S0,190.676,0,235.697v41.49c0,45.021,5.297,89.159,5.297,89.159  s5.297,37.959,20.303,54.731c19.421,22.069,45.021,21.186,56.497,23.835C122.703,449.324,256,450.207,256,450.207  s107.697,0,179.2-6.179c9.71-0.883,31.779-1.766,51.2-22.952c15.007-16.772,20.303-54.731,20.303-54.731S512,321.324,512,277.186  v-41.49C512,190.676,506.703,145.655,506.703,145.655"
   id="path1" />
<polygon
   style="fill:#FFFFFF;"
   points="194.207,166.841 194.207,358.4 361.931,264.828 "
   id="polygon1" />
</svg>
